<svg xmlns="http://www.w3.org/2000/svg" width="100" height="100"><path fill="#c7ede6" d="M87.215 56.71A15.423 15.423 0 0 0 89 49.5c0-6.621-4.159-12.257-10.001-14.478L79 35c0-11.598-9.402-21-21-21-9.784 0-17.981 6.701-20.313 15.757A14.982 14.982 0 0 0 33 29c-7.692 0-14.023 5.793-14.89 13.252C12.906 43.353 9 47.969 9 53.5 9 59.851 14.149 65 20.5 65c.177 0 .352-.012.526-.022-.004.175-.026.346-.026.522C21 76.822 30.178 86 41.5 86c6.437 0 12.175-2.972 15.934-7.614A11.948 11.948 0 0 0 66 82c4.65 0 8.674-2.65 10.666-6.518 1.052.335 2.171.518 3.334.518 6.075 0 11-4.925 11-11 0-3.311-1.47-6.273-3.785-8.29z"/><path fill="#fdfcef" d="M79.875 60.5H86a4.5 4.5 0 0 0 4.5-4.5c0-2.333-1.782-4.229-4.055-4.455.022-.181.055-.358.055-.545a4.5 4.5 0 0 0-4.5-4.5c-1.438 0-2.703.686-3.527 1.736-.14-2.636-2.302-4.736-4.973-4.736a5 5 0 0 0-5 5c0 .446.077.87.187 1.282A3.477 3.477 0 0 0 66 48.5a3.489 3.489 0 0 0-3.455 3.055c-.181-.022-.358-.055-.545-.055a4.5 4.5 0 0 0 0 9h14.875v.5h3v-.5z"/><path fill="#472b29" d="M73.5 43a5.506 5.506 0 0 0-5.5 5.5v.047A3.933 3.933 0 0 0 66 48a3.998 3.998 0 0 0-3.858 3.005A2.22 2.22 0 0 0 62 51c-2.757 0-5 2.243-5 5s2.243 5 5 5h14.875a.5.5 0 0 0 0-1H62c-2.206 0-4-1.794-4-4s1.794-4 4-4c.117 0 .23.017.343.032l.141.019a.502.502 0 0 0 .557-.433A2.996 2.996 0 0 1 66 49c.885 0 1.723.401 2.301 1.1a.503.503 0 0 0 .614.126.5.5 0 0 0 .254-.573A4.45 4.45 0 0 1 69 48.5c0-2.481 2.019-4.5 4.5-4.5 2.381 0 4.347 1.872 4.474 4.263a.5.5 0 0 0 .893.282A3.97 3.97 0 0 1 82 47c2.206 0 4 1.794 4 4 0 .117-.017.23-.032.343l-.019.141a.5.5 0 0 0 .446.558A3.976 3.976 0 0 1 90 56c0 2.206-1.794 4-4 4h-6.125a.5.5 0 0 0 0 1H86c2.757 0 5-2.243 5-5a4.966 4.966 0 0 0-4.003-4.877L87 51c0-2.757-2.243-5-5-5a4.932 4.932 0 0 0-3.183 1.164A5.486 5.486 0 0 0 73.5 43z"/><path fill="#472b29" d="M72 50c-1.403 0-2.609.999-2.913 2.341A2.344 2.344 0 0 0 67.875 52a2.377 2.377 0 0 0-2.353 2.068 2.628 2.628 0 0 0-.584-.068 2.94 2.94 0 0 0-2.918 2.732.25.25 0 0 0 .231.268h.018a.25.25 0 0 0 .249-.232 2.44 2.44 0 0 1 2.419-2.268c.229 0 .47.042.738.127.022.007.045.01.067.01a.26.26 0 0 0 .258-.262c0-1.034.841-1.875 1.875-1.875.447 0 .885.168 1.231.473a.252.252 0 0 0 .165.063.231.231 0 0 0 .093-.019.247.247 0 0 0 .155-.212C69.623 51.512 70.712 50.5 72 50.5c.208 0 .425.034.682.107a.25.25 0 0 0 .137-.481A2.94 2.94 0 0 0 72 50zm13.883 1.5a3.007 3.007 0 0 0-2.874 2.182.25.25 0 1 0 .481.136A2.505 2.505 0 0 1 85.883 52c.117 0 .23.014.342.029a.251.251 0 0 0 .281-.214.249.249 0 0 0-.214-.281 3.063 3.063 0 0 0-.409-.034z"/><path fill="#fff" d="M15.405 51H5.5a.5.5 0 0 1 0-1h9.905a.5.5 0 0 1 0 1zm3.095 0h-1a.5.5 0 0 1 0-1h1a.5.5 0 0 1 0 1zm4.991 2H14.5a.5.5 0 0 1 0-1h8.991a.5.5 0 0 1 0 1zM12.5 53h-1a.5.5 0 0 1 0-1h1a.5.5 0 0 1 0 1zm-3 0h-2a.5.5 0 0 1 0-1h2a.5.5 0 0 1 0 1zm6 2h-2a.5.5 0 0 1 0-1h2a.5.5 0 0 1 0 1zm3-9h-1a.5.5 0 0 0 0 1h1a.5.5 0 0 0 0-1zm0 2h-5a.5.5 0 0 0 0 1h5a.5.5 0 0 0 0-1zm5 2h-3a.5.5 0 0 0 0 1h3a.5.5 0 0 0 0-1zM72.5 24h-10a.5.5 0 0 1 0-1h10a.5.5 0 0 1 0 1zm4 0h-2a.5.5 0 0 1 0-1h2a.5.5 0 0 1 0 1zm5 2h-10a.5.5 0 0 1 0-1h10a.5.5 0 0 1 0 1zm-12 0h-1a.5.5 0 0 1 0-1h1a.5.5 0 0 1 0 1zm-3.125 0H64.5a.5.5 0 0 1 0-1h1.875a.5.5 0 0 1 0 1zm9.125-4h-5a.5.5 0 0 1 0-1h5a.5.5 0 0 1 0 1zm-3 6h-2a.5.5 0 0 1 0-1h2a.5.5 0 0 1 0 1z"/><path fill="#ea5167" d="M37 71.3c-4.025 0-7.3-3.274-7.3-7.3V36c0-4.025 3.274-7.3 7.3-7.3h28c4.025 0 7.3 3.274 7.3 7.3v28c0 4.025-3.274 7.3-7.3 7.3H37z"/><path fill="#472b29" d="M65 29.4c3.639 0 6.6 2.961 6.6 6.6v28c0 3.639-2.961 6.6-6.6 6.6H37a6.608 6.608 0 0 1-6.6-6.6V36c0-3.639 2.961-6.6 6.6-6.6h28m0-1.4H37a8 8 0 0 0-8 8v28a8 8 0 0 0 8 8h28a8 8 0 0 0 8-8V36a8 8 0 0 0-8-8z"/><path fill="#472b29" d="M68.446 47.511a.5.5 0 0 1-.5-.5v-3.706a.5.5 0 0 1 1 0v3.706a.5.5 0 0 1-.5.5zM68.508 41.06a.5.5 0 0 1-.5-.5v-1.913a.5.5 0 0 1 1 0v1.913a.5.5 0 0 1-.5.5z"/><path fill="#472b29" d="M64.251 67.938H37.812a4.755 4.755 0 0 1-4.749-4.749v-26.44A4.755 4.755 0 0 1 37.812 32h23.96a.5.5 0 0 1 0 1h-23.96a3.754 3.754 0 0 0-3.749 3.749v26.439a3.754 3.754 0 0 0 3.749 3.749h26.439A3.754 3.754 0 0 0 68 63.188V49.614a.5.5 0 0 1 1 0v13.574c0 2.619-2.13 4.75-4.749 4.75z"/><path fill="#fff" d="M58.636 48.156c.279.006.455.009.531.009.418.021.845.034 1.251.045 2.715.077 4.212.12 4.866 2.624.336 1.637.549 3.879.549 5.83-.02.407-.034.842-.048 1.28-.111 3.536-.216 6.877-3.562 7.143-2.046.159-7.395.245-11.391.246-3.995-.001-9.344-.087-11.391-.245-3.344-.266-3.45-3.607-3.561-7.143-.015-.438-.027-.872-.048-1.298 0-1.934.212-4.175.553-5.832.65-2.486 2.145-2.528 4.862-2.605.406-.011.833-.024 1.275-.046l.506-.008a351.933 351.933 0 0 1 7.903-.072 420.344 420.344 0 0 1 4.256.02M46.289 34.343l-1.684 4.716-1.684-4.716h-1.684l2.526 7.074v4.715h1.684v-4.715l2.527-7.074zm10.948 2.947v6.526s-.368.835-1.053.842c-.616.006-.632-.333-.632-.526V37.29h-1.684v7.158c0 1.263.947 1.684 1.508 1.684 1.123 0 1.65-.842 1.86-1.158v1.053h1.684V37.29h-1.683zm-6.948 8.842c-1.393 0-2.526-1.157-2.526-2.579v-3.789c0-1.421 1.133-2.579 2.526-2.579s2.526 1.157 2.526 2.579v3.789c.001 1.422-1.133 2.579-2.526 2.579zm0-7.368c-.465 0-.842.417-.842.93v3.93c0 .513.377.93.842.93.465 0 .842-.417.842-.93v-3.93c.001-.513-.377-.93-.842-.93z"/><path fill="#ea5167" d="M49.833 62.475H48.09v-1.158c-.218.316-.762 1.157-1.925 1.158-.58 0-1.561-.421-1.561-1.684v-7.579h1.743v7.263c0 .194.016.532.654.526.708-.007 1.089-.842 1.089-.842v-6.947h1.743v9.263zm-6-10.106h-1.777v10.106h-1.778V52.369H38.5v-1.684h5.333zm12.905 2.998c0-.727-.238-1.219-.542-1.591-.301-.371-.746-.565-1.311-.565-.283 0-.566.076-.848.215a2.015 2.015 0 0 0-.784.678v-3.419H51.51v11.789h1.743v-1.158c.336.38.827 1.167 1.743 1.158 1.307 0 1.743-1.158 1.743-2.105v-5.002zm-1.742 4.601c0 .465-.39.823-.871.823s-.864-.179-.871-.421v-5.002a.89.89 0 0 1 .871-.842c.481 0 .871.37.871 1.213v4.229zm8.504-1.704V55.64c0-.84-.439-2.429-2.632-2.429-2.083 0-2.629 1.667-2.629 2.429v3.965c0 .861.244 1.527.709 2.014.469.488 1.119.723 1.954.723.911 0 1.605-.217 2.051-.686.47-.449.547-1.13.547-2.051v-.499h-1.754v.421c0 .508-.052.898-.175 1.037-.121.155-.346.223-.703.227-.322.003-.567-.083-.688-.276-.124-.176-.189-.479-.189-.948v-1.302H63.5zm-3.509-2.526a.874.874 0 0 1 .877-.842c.484 0 .877.324.877.842v.842h-1.754v-.842z"/><path fill="#472b29" d="M58.636 48.406h-.005l-.068-.001c-.545-.012-1.43-.029-2.69-.044a.25.25 0 0 1 .003-.5h.003c1.262.015 2.148.032 2.694.044l.068.001a.25.25 0 0 1-.005.5z"/><path fill="#472b29" d="M50.833 65.583c-3.999-.001-9.356-.087-11.41-.245-3.569-.284-3.683-3.894-3.792-7.385l-.004-.136c-.012-.39-.025-.777-.043-1.157 0-1.971.213-4.225.558-5.895.7-2.68 2.356-2.727 5.099-2.805.405-.012.83-.024 1.271-.046l.514-.009c.95-.02 3.473-.073 7.716-.073l.192.001c1.273 0 2.388.005 3.352.012a.25.25 0 0 1 .248.252c-.001.138-.093.266-.252.248-.963-.007-2.076-.012-3.348-.012l-.193-.001a347.271 347.271 0 0 0-8.216.082c-.432.021-.86.034-1.268.046-2.679.076-4.024.114-4.627 2.419-.334 1.626-.544 3.842-.544 5.769.018.37.031.76.043 1.153l.004.136c.112 3.57.208 6.653 3.331 6.902 2.04.156 7.381.242 11.371.243 3.993-.001 9.335-.087 11.372-.244 3.122-.249 3.219-3.332 3.331-6.901l.002-.137c.013-.394.026-.781.044-1.147 0-1.919-.209-4.134-.545-5.767-.604-2.311-1.949-2.349-4.628-2.425-.138-.004-.247-.119-.243-.257s.132-.233.257-.243c2.743.078 4.399.125 5.101 2.811.345 1.677.558 3.93.558 5.894a79.95 79.95 0 0 0-.044 1.151l-.004.138c-.109 3.489-.223 7.099-3.792 7.383-2.05.157-7.409.244-11.411.245z"/><g><path fill="#fdfcef" d="M36.5 73.5H40a3.5 3.5 0 0 0 3.5-3.5 3.489 3.489 0 0 0-3.055-3.455c.028-.179.055-.358.055-.545a3.5 3.5 0 0 0-3.5-3.5c-1.032 0-1.95.455-2.59 1.165a3.999 3.999 0 0 0-7.91.835c0 .191.03.374.056.558A2.473 2.473 0 0 0 25 64.5a2.496 2.496 0 0 0-2.455 2.055A3.495 3.495 0 0 0 22 66.5a3.5 3.5 0 1 0 0 7h7.5v.5h7v-.5z"/><path fill="#472b29" d="M38.25 69a.25.25 0 0 1-.25-.25 2.22 2.22 0 0 1 2.218-2.218c.034.009.737-.001 1.244.136a.25.25 0 0 1-.13.482c-.444-.12-1.1-.12-1.113-.118A1.72 1.72 0 0 0 38.5 68.75a.25.25 0 0 1-.25.25zm-6.75 4a.5.5 0 1 0 0 1 .5.5 0 1 0 0-1z"/><path fill="#472b29" d="M40 74h-3.5a.5.5 0 0 1 0-1H40c1.654 0 3-1.346 3-3a2.996 2.996 0 0 0-2.618-2.959.502.502 0 0 1-.43-.573c.023-.154.048-.308.048-.468 0-1.654-1.346-3-3-3-.85 0-1.638.355-2.219 1a.498.498 0 0 1-.86-.231A3.514 3.514 0 0 0 30.5 61c-1.93 0-3.5 1.57-3.5 3.5 0 .143.021.28.041.418.029.203-.063.438-.242.54-.179.102-.396.118-.556-.01A1.97 1.97 0 0 0 25 65c-.966 0-1.792.691-1.963 1.644a.498.498 0 0 1-.569.405C22.314 67.025 22.16 67 22 67c-1.654 0-3 1.346-3 3s1.346 3 3 3h7.5a.5.5 0 0 1 0 1H22c-2.206 0-4-1.794-4-4a4.004 4.004 0 0 1 4.174-3.994A2.993 2.993 0 0 1 25 64c.349 0 .689.061 1.011.18A4.506 4.506 0 0 1 30.5 60a4.523 4.523 0 0 1 4.153 2.774A3.979 3.979 0 0 1 37 62a4.004 4.004 0 0 1 3.996 4.142A3.999 3.999 0 0 1 44 70c0 2.206-1.794 4-4 4z"/><path fill="#472b29" d="M34.5 73h-1a.5.5 0 0 0 0 1h1a.5.5 0 0 0 0-1z"/></g></svg>
